<?xml version="1.0" encoding="UTF-8"?>
<svg id="Calque_1" xmlns="http://www.w3.org/2000/svg" version="1.1" viewBox="0 0 802.91 447.15">
  <!-- Generator: Adobe Illustrator 29.1.0, SVG Export Plug-In . SVG Version: 2.1.0 Build 142)  -->
  <defs>
    <style>
      .st0 {
        fill: #00bfff;
      }
    </style>
  </defs>
  <rect x="242.84" y="142.25" width="297.39" height="124.17" rx="51" ry="51"/>
  <path class="st0" d="M300.9,165.29c-7.1,2.5-11.2,5.2-16,10.4-6.7,7.2-11.2,18.4-11.2,27.6,0,2.8.2,3,4,3,2.2,0,4,.4,4,.9s-1,3-2.2,5.7c-3.2,7.4-4.7,14-5.5,23.7l-.6,8.8,91.4-.3c85.4-.3,91.8-.5,96.9-2.2,19.6-6.5,35.5-21.2,42.9-39.8,3.1-7.6,6-25.9,4.8-29.2-.6-1.4-5.9-1.6-47.7-1.6h-47v-9h-54.2c-50.8.1-54.6.2-59.6,2h0ZM452.7,185.49c2.6,2.8,2.6,8.2,0,10.8s-8.6,2.7-11.2.3c-2.7-2.4-2.5-9.7.4-11.7,3.3-2.3,8.3-2,10.8.6h0ZM337.5,191.69c.3,5.5.1,6.1-2.9,9.2-1.8,1.9-3.6,3.4-4,3.4s-2.1-1.4-3.8-3.2c-2.7-2.8-3.1-3.9-3.1-8.8,0-3.1.3-6,.7-6.4s3.4-.6,6.8-.4l6,.3.3,5.9ZM433.1,201.39c3.3,1.5,4.8,5.9,3.4,9.9-1.9,5.6-9.1,6.9-12.7,2.4-5.6-7.2,1.1-16,9.3-12.3h0ZM468.6,201.79c4.6,2.3,4.6,11.1.1,13.5-8.2,4.4-16.1-6-9.5-12.5,2.8-2.9,5.4-3.1,9.4-1ZM323.9,203.99c1.5,1.5,2.8,3.1,2.8,3.7,0,.5-1.4,2.5-3.2,4.3-2.9,3-3.7,3.3-9,3.3-3.9,0-5.8-.4-5.9-1.3,0-.6-.2-3.8-.2-6.9l-.2-5.8h6.4c5.7,0,6.8.3,9.3,2.7h0ZM353.1,204.99c-.1,2.1-.3,5.3-.3,7l-.1,3.3h-5.7c-5.1,0-6.1-.4-9-3.2-1.8-1.8-3.3-3.6-3.3-4.2,0-.5,1.2-2.3,2.7-3.8,2.4-2.5,3.3-2.8,9.3-2.8h6.6l-.2,3.7ZM334.4,215.49c3,2.9,3.3,3.7,3.3,9v5.8h-14v-6.1c0-5.3.4-6.5,2.7-9,1.6-1.6,3.2-2.9,3.7-2.9.6,0,2.5,1.4,4.3,3.2ZM452.7,220.29c1.2,1.2,2,3.3,2,5.5,0,4.7-2.9,7.5-7.8,7.5s-7.4-2.6-7.4-7.6c0-2.7.6-4.3,2.2-5.6,3-2.4,8.5-2.3,11,.2h0Z"/>
  <g>
    <path d="M295.61,329.73h-7.22c-3.59,0-6.36-.95-8.31-2.86-1.95-1.91-2.93-4.66-2.93-8.25v-21.6c0-3.59.98-6.34,2.93-8.25,1.95-1.91,4.72-2.86,8.31-2.86h7.22c3.54,0,6.29.97,8.25,2.9,1.95,1.93,2.93,4.67,2.93,8.21v2.04c0,1-.48,1.5-1.43,1.5h-5.79c-.95,0-1.43-.5-1.43-1.5v-1.64c0-1.45-.3-2.49-.89-3.1-.59-.61-1.61-.92-3.07-.92h-4.43c-1.41,0-2.42.31-3.03.92s-.92,1.65-.92,3.1v20.79c0,1.45.31,2.49.92,3.1s1.62.92,3.03.92h4.43c1.45,0,2.48-.31,3.07-.92.59-.61.89-1.65.89-3.1v-4.29c0-.5-.25-.75-.75-.75h-4.09c-.95,0-1.43-.48-1.43-1.43v-4.63c0-.95.48-1.43,1.43-1.43h11.93c1.04,0,1.57.52,1.57,1.57v11.38c0,3.54-.98,6.28-2.93,8.21-1.95,1.93-4.7,2.9-8.25,2.9h-.01Z"/>
    <path d="M326.49,329.73h-1.64c-3.59,0-6.36-.95-8.31-2.86-1.95-1.91-2.93-4.66-2.93-8.25v-12.54c0-3.59.98-6.34,2.93-8.25,1.95-1.91,4.72-2.86,8.31-2.86h15.74c1,0,1.5.48,1.5,1.43v31.89c0,.95-.5,1.43-1.5,1.43h-5.72c-.95,0-1.43-.48-1.43-1.43v-2.25h-.27c-.5,1.23-1.39,2.15-2.66,2.76-1.27.61-2.61.92-4.02.92h0ZM333.44,317.05v-13.83c0-.5-.27-.75-.82-.75h-6.41c-1.45,0-2.48.31-3.07.92-.59.61-.89,1.65-.89,3.1v11.72c0,1.45.29,2.49.89,3.1.59.61,1.61.92,3.07.92h2.52c3.13,0,4.7-1.73,4.7-5.18h.01Z"/>
    <path d="M356.81,329.73h-5.79c-.95,0-1.43-.48-1.43-1.43v-31.89c0-.95.48-1.43,1.43-1.43h5.79c.95,0,1.43.48,1.43,1.43v2.25h.27c.54-1.09,1.46-1.98,2.76-2.66,1.29-.68,2.78-1.02,4.46-1.02h1.91c3.95,0,6.79,1.45,8.52,4.36,1.54-2.91,4.2-4.36,7.97-4.36h1.98c3.5,0,6.14.95,7.94,2.86,1.79,1.91,2.69,4.66,2.69,8.25v22.22c0,.95-.48,1.43-1.43,1.43h-5.79c-.95,0-1.43-.48-1.43-1.43v-21.81c0-1.45-.3-2.49-.89-3.1-.59-.61-1.61-.92-3.07-.92h-1.7c-3.13,0-4.7,1.75-4.7,5.25v20.58c0,.95-.5,1.43-1.5,1.43h-5.72c-.95,0-1.43-.48-1.43-1.43v-21.81c0-1.45-.31-2.49-.92-3.1s-1.65-.92-3.1-.92h-2.11c-3.13,0-4.7,1.73-4.7,5.18v20.65c0,.95-.48,1.43-1.43,1.43h0Z"/>
    <path d="M429.59,329.73h-15.06c-3.59,0-6.36-.95-8.31-2.86-1.95-1.91-2.93-4.66-2.93-8.25v-12.54c0-3.59.98-6.34,2.93-8.25,1.95-1.91,4.72-2.86,8.31-2.86h5.38c3.59,0,6.36.95,8.31,2.86,1.95,1.91,2.93,4.66,2.93,8.25v8.65c0,.95-.48,1.43-1.43,1.43h-17.1c-.55,0-.82.25-.82.75v1.5c0,1.41.31,2.42.92,3.03s1.65.92,3.1.92h13.77c.95,0,1.43.5,1.43,1.5v4.5c0,.5-.1.85-.31,1.06-.2.21-.58.31-1.12.31ZM412.62,310.38h9.27c.5,0,.75-.25.75-.75v-3.27c0-1.45-.3-2.48-.89-3.07-.59-.59-1.61-.89-3.07-.89h-2.86c-1.45,0-2.48.3-3.07.89-.59.59-.89,1.61-.89,3.07v3.27c0,.5.25.75.75.75h.01Z"/>
    <path d="M456.51,329.73h-7.63c-3.59,0-6.36-.95-8.31-2.86-1.95-1.91-2.93-4.66-2.93-8.25v-21.6c0-3.59.98-6.34,2.93-8.25,1.95-1.91,4.72-2.86,8.31-2.86h7.63c3.59,0,6.36.95,8.31,2.86,1.95,1.91,2.93,4.66,2.93,8.25v21.6c0,3.59-.98,6.34-2.93,8.25-1.95,1.91-4.73,2.86-8.31,2.86ZM450.24,322.23h4.84c1.45,0,2.49-.31,3.1-.92s.92-1.65.92-3.1v-20.79c0-1.45-.31-2.49-.92-3.1s-1.65-.92-3.1-.92h-4.84c-1.45,0-2.48.31-3.07.92-.59.61-.89,1.65-.89,3.1v20.79c0,1.45.29,2.49.89,3.1.59.61,1.61.92,3.07.92Z"/>
    <path d="M482.47,329.73h-5.79c-.95,0-1.43-.48-1.43-1.43v-31.89c0-.95.48-1.43,1.43-1.43h5.79c.95,0,1.43.48,1.43,1.43v2.25h.27c1-2.45,3.22-3.68,6.68-3.68h2.18c7.13,0,10.7,3.7,10.7,11.11v22.22c0,.95-.5,1.43-1.5,1.43h-5.72c-.95,0-1.43-.48-1.43-1.43v-21.81c0-1.45-.31-2.49-.92-3.1s-1.65-.92-3.1-.92h-2.45c-3.13,0-4.7,1.73-4.7,5.18v20.65c0,.95-.48,1.43-1.43,1.43h0Z"/>
  </g>
</svg>